<svg height="100%" stroke-miterlimit="10" style="fill-rule:nonzero;clip-rule:evenodd;stroke-linecap:round;stroke-linejoin:round;" version="1.1" viewBox="519.591 458.501 57.6122 16.5518" width="100%" xml:space="preserve" xmlns="http://www.w3.org/2000/svg">
<defs/>
    <g id="Layer">
<g opacity="1">
<path d="M519.591 466.777C519.591 462.206 523.296 458.501 527.867 458.501C532.437 458.501 536.143 462.206 536.143 466.777C536.143 471.347 532.437 475.053 527.867 475.053C523.296 475.053 519.591 471.347 519.591 466.777Z" fill="#fff8f1" fill-rule="nonzero" opacity="1" stroke="none"/>
    <path d="M525.121 466.823C525.121 465.342 526.35 464.142 527.865 464.142C529.381 464.142 530.61 465.342 530.61 466.823C530.61 468.303 529.381 469.503 527.865 469.503C526.35 469.503 525.121 468.303 525.121 466.823Z" fill="#000002" fill-rule="nonzero" opacity="1" stroke="none"/>
</g>
        <g opacity="1">
<path d="M560.651 466.777C560.651 462.206 564.357 458.501 568.927 458.501C573.498 458.501 577.203 462.206 577.203 466.777C577.203 471.347 573.498 475.053 568.927 475.053C564.357 475.053 560.651 471.347 560.651 466.777Z" fill="#fff8f1" fill-rule="nonzero" opacity="1" stroke="none"/>
            <path d="M566.181 466.823C566.181 465.342 567.41 464.142 568.926 464.142C570.441 464.142 571.67 465.342 571.67 466.823C571.67 468.303 570.441 469.503 568.926 469.503C567.41 469.503 566.181 468.303 566.181 466.823Z" fill="#000002" fill-rule="nonzero" opacity="1" stroke="none"/>
</g>
</g>
</svg>
