<svg height="100%" stroke-miterlimit="10" style="fill-rule:nonzero;clip-rule:evenodd;stroke-linecap:round;stroke-linejoin:round;" version="1.1" viewBox="486.028 409.639 122.942 154.686" width="100%" xml:space="preserve" xmlns="http://www.w3.org/2000/svg">
    <path d="M532.613 517.735L563.378 517.735L563.378 564.325L532.613 564.325L532.613 517.735Z" fill="#3395ff" fill-rule="nonzero" opacity="1" stroke="none"/>
    <path d="M495.27 462.125C495.27 433.138 506.416 409.639 547.756 409.639C589.096 409.639 600.241 433.138 600.241 462.125C600.241 491.112 576.743 534.771 547.756 534.771C518.769 534.771 495.27 491.112 495.27 462.125Z" fill="#3395ff" fill-rule="nonzero" opacity="1" stroke="none"/>
    <path d="M608.399 483.184C610.217 475.254 607.553 467.876 602.45 466.707C597.347 465.537 591.737 471.019 589.92 478.95C588.102 486.881 590.765 494.258 595.868 495.427C600.971 496.597 606.581 491.115 608.399 483.184Z" fill="#3395ff" fill-rule="nonzero" opacity="1" stroke="none"/>
    <path d="M486.599 483.184C484.782 475.254 487.445 467.876 492.548 466.707C497.651 465.537 503.261 471.019 505.079 478.95C506.896 486.881 504.233 494.258 499.13 495.427C494.027 496.597 488.417 491.115 486.599 483.184Z" fill="#3395ff" fill-rule="nonzero" opacity="1" stroke="none"/>
</svg>
