<svg height="100%" stroke-miterlimit="10" style="fill-rule:nonzero;clip-rule:evenodd;stroke-linecap:round;stroke-linejoin:round;" version="1.1" viewBox="533.102 500.814 28.2955 10.0789" width="100%" xml:space="preserve" xmlns="http://www.w3.org/2000/svg">
    <path d="M533.602 508.404C533.602 508.404 536.227 505.447 547.277 505.447C558.327 505.447 560.897 508.404 560.897 508.404" fill="#3395ff" fill-rule="nonzero" opacity="1" stroke="#ffffff" stroke-linecap="butt" stroke-linejoin="round" stroke-width="1"/>
    <path d="M539.264 503.95C539.264 502.494 541.33 501.314 543.878 501.314C546.426 501.314 548.492 502.494 548.492 503.95C548.492 505.406 546.426 506.586 543.878 506.586C541.33 506.586 539.264 505.406 539.264 503.95Z" fill="#3395ff" fill-rule="nonzero" opacity="1" stroke="#ffffff" stroke-linecap="butt" stroke-linejoin="round" stroke-width="1"/>
    <path d="M547.491 503.95C547.491 502.494 549.557 501.314 552.105 501.314C554.653 501.314 556.719 502.494 556.719 503.95C556.719 505.406 554.653 506.586 552.105 506.586C549.557 506.586 547.491 505.406 547.491 503.95Z" fill="#3395ff" fill-rule="nonzero" opacity="1" stroke="#ffffff" stroke-linecap="butt" stroke-linejoin="round" stroke-width="1"/>
    <path d="M539.742 507.756C539.742 506.3 543.382 505.12 547.872 505.12C552.362 505.12 556.002 506.3 556.002 507.756C556.002 509.212 552.362 510.392 547.872 510.392C543.382 510.392 539.742 509.212 539.742 507.756Z" fill="#3395ff" fill-rule="nonzero" opacity="1" stroke="#ffffff" stroke-linecap="butt" stroke-linejoin="round" stroke-width="1"/>
</svg>
