<?xml version="1.0" encoding="UTF-8" standalone="no"?>
<!DOCTYPE svg PUBLIC "-//W3C//DTD SVG 1.1//EN" "http://www.w3.org/Graphics/SVG/1.1/DTD/svg11.dtd">
<!-- Created with Vectornator (http://vectornator.io/) -->
<svg height="880.0px" stroke-miterlimit="10" style="fill-rule:nonzero;clip-rule:evenodd;stroke-linecap:round;stroke-linejoin:round;" version="1.1" viewBox="0 0 400 880" width="400.0px" xml:space="preserve" xmlns="http://www.w3.org/2000/svg" xmlns:xlink="http://www.w3.org/1999/xlink">
<defs/>
<g id="Item-에어팟">
<path d="M137.567 170.707C137.595 170.454 137.9 169.424 138.753 168.466C139.606 167.509 140.44 167.666 141.512 167.658C142.584 167.65 142.652 168.865 142.652 168.865C142.808 169.069 142.678 172.957 142.678 172.957C142.671 173.609 141.502 174.579 140.854 174.649L140.204 174.766C139.768 174.844 139.437 175.204 139.396 175.646L138.266 187.88C138.219 188.387 137.794 188.775 137.284 188.775L136.671 188.776C136.083 188.776 135.626 188.265 135.69 187.681L137.567 170.707Z" fill="#ffffff" fill-rule="nonzero" opacity="1" stroke="#000002" stroke-linecap="butt" stroke-linejoin="round" stroke-width="0.5"/>
<path d="M247.753 170.707C247.725 170.454 247.419 169.424 246.566 168.466C245.713 167.509 244.879 167.666 243.808 167.658C242.736 167.65 242.668 168.865 242.668 168.865C242.512 169.069 242.641 172.957 242.641 172.957C242.649 173.609 243.817 174.579 244.466 174.649L245.116 174.766C245.552 174.844 245.882 175.204 245.923 175.646L247.054 187.88C247.101 188.387 247.526 188.775 248.035 188.775L248.649 188.776C249.236 188.776 249.694 188.265 249.629 187.681L247.753 170.707Z" fill="#ffffff" fill-rule="nonzero" opacity="1" stroke="#000002" stroke-linecap="butt" stroke-linejoin="round" stroke-width="0.5"/>
</g>
</svg>
