<?xml version="1.0" encoding="UTF-8" standalone="no"?>
<!DOCTYPE svg PUBLIC "-//W3C//DTD SVG 1.1//EN" "http://www.w3.org/Graphics/SVG/1.1/DTD/svg11.dtd">
<!-- Created with Vectornator (http://vectornator.io/) -->
<svg height="880.0px" stroke-miterlimit="10" style="fill-rule:nonzero;clip-rule:evenodd;stroke-linecap:round;stroke-linejoin:round;" version="1.1" viewBox="0 0 400 880" width="400.0px" xml:space="preserve" xmlns="http://www.w3.org/2000/svg" xmlns:xlink="http://www.w3.org/1999/xlink">
<defs/>
<g id="Item-크로스백">
<path d="M130.66 251.221C130.426 249.997 131.994 248.776 131.994 248.776L145.012 244.379C145.012 244.379 147.406 244.425 147.548 245.697C148.599 255.18 201.329 427.421 201.329 427.421L183.593 428.223C183.593 428.223 132.903 262.927 130.66 251.221Z" fill="#6d6d9b" fill-rule="nonzero" opacity="1" stroke="none"/>
<path d="M177.94 437.418C177.94 429.743 184.162 423.521 191.838 423.521L259.02 423.521C266.696 423.521 272.918 429.743 272.918 437.418L272.918 511.249C272.918 518.924 266.696 525.146 259.02 525.146L191.838 525.146C184.162 525.146 177.94 518.924 177.94 511.249L177.94 437.418Z" fill="#6d6d9b" fill-rule="nonzero" opacity="1" stroke="none"/>
<path d="M180.314 441.731C180.314 440.101 178.993 438.781 177.364 438.781L177.364 438.781C175.734 438.781 174.413 440.101 174.413 441.731L174.413 472.3C174.413 473.93 175.734 475.251 177.364 475.251L177.364 475.251C178.993 475.251 180.314 473.93 180.314 472.3L180.314 441.731Z" fill="#6d6d9b" fill-rule="nonzero" opacity="1" stroke="#9d9dac" stroke-linecap="butt" stroke-linejoin="round" stroke-width="1"/>
<path d="M274.398 441.731C274.398 440.101 273.077 438.781 271.448 438.781L271.448 438.781C269.819 438.781 268.498 440.101 268.498 441.731L268.498 472.3C268.498 473.93 269.819 475.251 271.448 475.251L271.448 475.251C273.077 475.251 274.398 473.93 274.398 472.3L274.398 441.731Z" fill="#6d6d9b" fill-rule="nonzero" opacity="1" stroke="none"/>
<path d="M274.398 481.753C274.398 480.124 273.077 478.803 271.448 478.803L271.448 478.803C269.819 478.803 268.498 480.124 268.498 481.753L268.498 512.323C268.498 513.952 269.819 515.273 271.448 515.273L271.448 515.273C273.077 515.273 274.398 513.952 274.398 512.323L274.398 481.753Z" fill="#6d6d9b" fill-rule="nonzero" opacity="1" stroke="none"/>
<path d="M174.413 447.772L180.314 447.772" fill="none" opacity="1" stroke="#9d9dac" stroke-linecap="butt" stroke-linejoin="round" stroke-width="1"/>
<path d="M185.157 439.766C185.157 436.918 187.465 434.609 190.313 434.609L220.774 434.609C223.621 434.609 225.93 436.918 225.93 439.766L225.93 465.976C225.93 468.824 223.621 471.132 220.774 471.132L190.313 471.132C187.465 471.132 185.157 468.824 185.157 465.976L185.157 439.766Z" fill="none" opacity="1" stroke="#9d9dac" stroke-linecap="butt" stroke-linejoin="round" stroke-width="1"/>
<path d="M185.157 439.41C185.157 439.452 225.93 439.41 225.93 439.41" fill="none" opacity="1" stroke="#9d9dac" stroke-linecap="butt" stroke-linejoin="round" stroke-width="1"/>
<path d="M186.181 483.533C186.181 480.685 188.49 478.376 191.337 478.376L259.707 478.376C262.555 478.376 264.864 480.685 264.864 483.533L264.864 509.743C264.864 512.591 262.555 514.899 259.707 514.899L191.337 514.899C188.49 514.899 186.181 512.591 186.181 509.743L186.181 483.533Z" fill="none" opacity="1" stroke="#9d9dac" stroke-linecap="butt" stroke-linejoin="round" stroke-width="1"/>
<path d="M230.319 439.459C230.319 436.612 232.627 434.303 235.475 434.303L258.876 434.303C261.723 434.303 264.032 436.612 264.032 439.459L264.032 442.321C264.032 445.169 261.723 447.477 258.876 447.477L235.475 447.477C232.627 447.477 230.319 445.169 230.319 442.321L230.319 439.459Z" fill="none" opacity="1" stroke="#9d9dac" stroke-linecap="butt" stroke-linejoin="round" stroke-width="1"/>
<path d="M230.319 459.992C230.319 457.144 232.627 454.836 235.475 454.836L258.876 454.836C261.723 454.836 264.032 457.144 264.032 459.992L264.032 462.854C264.032 465.702 261.723 468.01 258.876 468.01L235.475 468.01C232.627 468.01 230.319 465.702 230.319 462.854L230.319 459.992Z" fill="none" opacity="1" stroke="#9d9dac" stroke-linecap="butt" stroke-linejoin="round" stroke-width="1"/>
<path d="M230.336 439.054L264.005 439.054" fill="none" opacity="1" stroke="#9d9dac" stroke-linecap="butt" stroke-linejoin="round" stroke-width="1"/>
<path d="M230.342 459.508L263.787 459.508" fill="none" opacity="1" stroke="#9d9dac" stroke-linecap="butt" stroke-linejoin="round" stroke-width="1"/>
<path d="M186.181 487.001L264.623 487.001" fill="none" opacity="1" stroke="#9d9dac" stroke-linecap="butt" stroke-linejoin="round" stroke-width="1"/>
<path d="M180.314 481.568C180.314 479.941 178.995 478.622 177.368 478.622L177.368 478.622C175.741 478.622 174.421 479.941 174.421 481.568L174.421 512.146C174.421 513.773 175.741 515.092 177.368 515.092L177.368 515.092C178.995 515.092 180.314 513.773 180.314 512.146L180.314 481.568Z" fill="#6d6d9b" fill-rule="nonzero" opacity="1" stroke="#9d9dac" stroke-linecap="butt" stroke-linejoin="round" stroke-width="1"/>
<path d="M174.421 490.21L180.322 490.21" fill="none" opacity="1" stroke="#9d9dac" stroke-linecap="butt" stroke-linejoin="round" stroke-width="1"/>
<g opacity="1">
<path d="M134.098 306.99C131.274 296.222 139.142 290.142 150.549 287.16L150.549 287.16C161.956 284.179 172.08 286.474 175.25 298.563L180.348 317.684C183.616 329.712 175.216 334.869 163.84 337.842L163.84 337.842C152.433 340.824 142.766 341.504 139.596 329.414L134.098 306.99Z" fill="#6d6d9b" fill-rule="nonzero" opacity="1" stroke="none"/>
<path d="M138.247 303.236C137.507 300.487 139.136 297.657 141.886 296.917L162.394 291.395C165.144 290.655 167.973 292.284 168.713 295.034L176.212 322.885C176.952 325.635 175.323 328.464 172.574 329.204L152.066 334.726C149.316 335.466 146.486 333.837 145.746 331.087L138.247 303.236Z" fill="none" opacity="1" stroke="#9d9dac" stroke-linecap="butt" stroke-linejoin="round" stroke-width="1"/>
<path d="M140.593 311.888L171.02 303.695" fill="none" opacity="1" stroke="#9d9dac" stroke-linecap="butt" stroke-linejoin="round" stroke-width="1"/>
</g>
</g>
</svg>
