<?xml version="1.0" encoding="UTF-8" standalone="no"?>
<!DOCTYPE svg PUBLIC "-//W3C//DTD SVG 1.1//EN" "http://www.w3.org/Graphics/SVG/1.1/DTD/svg11.dtd">
<!-- Created with Vectornator (http://vectornator.io/) -->
<svg height="100%" stroke-miterlimit="10" style="fill-rule:nonzero;clip-rule:evenodd;stroke-linecap:round;stroke-linejoin:round;" version="1.1" viewBox="134.21 65.5436 118.73 66.8535" width="100%" xml:space="preserve" xmlns="http://www.w3.org/2000/svg" xmlns:xlink="http://www.w3.org/1999/xlink">
<defs>
<radialGradient cx="0" cy="0" gradientTransform="matrix(55.5597 0 0 55.5597 194.432 122.87)" gradientUnits="userSpaceOnUse" id="RadialGradient" r="1">
<stop offset="0" stop-color="#ececf2"/>
<stop offset="1" stop-color="#d7b67d"/>
</radialGradient>
</defs>
<g id="Item-캡모자">
<path d="M193.117 65.5436C245.002 65.5436 251.771 112.668 252.451 115.961C253.132 119.253 252.903 122.574 252.903 122.574C252.903 122.574 232.071 116.685 193.79 116.685C155.509 116.685 135.35 123.996 135.35 123.996C135.35 123.996 133.847 122.379 134.293 118.944C136.308 103.445 140.85 65.5436 193.117 65.5436Z" fill="#d7b67d" fill-rule="nonzero" opacity="1" stroke="none"/>
<path d="M252.865 122.564C252.865 122.564 230.338 108.425 194.487 108.425C158.637 108.425 134.36 121.734 134.36 121.734C134.36 121.734 134.067 133.612 148.044 132.295C162.021 130.978 171.344 118.877 194.833 119.347C218.322 119.817 221.72 130.28 236.054 131.58C250.388 132.88 252.865 122.564 252.865 122.564Z" fill="url(#RadialGradient)" fill-rule="nonzero" opacity="1" stroke="none"/>
<g fill="#000002" opacity="1" stroke="none">
<path d="M178.071 101.817C177.873 101.682 177.774 101.562 177.774 101.458C177.774 101.333 177.92 101.271 178.211 101.271L179.913 101.317C180.6 101.317 181.268 101.312 181.919 101.302C182.569 101.291 183.154 101.276 183.675 101.255C183.675 100.953 183.56 100.581 183.331 100.139C183.102 99.6966 182.868 99.2466 182.629 98.7887C182.629 98.6534 182.712 98.5857 182.879 98.5857C183.191 98.5857 183.565 98.7028 184.002 98.937C184.44 99.1711 184.658 99.4235 184.658 99.694C184.658 99.7044 184.635 99.9022 184.588 100.287C184.541 100.672 184.518 100.984 184.518 101.224L184.767 101.224C185.194 101.224 185.644 101.203 186.118 101.161C186.591 101.12 187.093 101.031 187.624 100.896C187.978 100.792 188.259 100.74 188.467 100.74C188.727 100.74 188.995 100.834 189.271 101.021C189.547 101.208 189.684 101.422 189.684 101.661C189.684 101.817 189.625 101.95 189.505 102.059C189.385 102.168 189.227 102.223 189.029 102.223C188.769 102.223 188.508 102.207 188.248 102.176C187.457 102.082 187.01 102.035 186.906 102.035C184.981 102.035 183.552 102.069 182.621 102.137C181.69 102.205 181.063 102.29 180.74 102.395C180.584 102.447 180.415 102.512 180.233 102.59C180.051 102.668 179.908 102.707 179.803 102.707C179.627 102.707 179.33 102.587 178.914 102.348C178.851 102.306 178.57 102.129 178.071 101.817ZM186.547 96.5565C185.756 96.6605 185.142 96.7438 184.705 96.8062C183.383 97.0144 182.509 97.2381 182.082 97.4774C181.895 97.6023 181.744 97.6648 181.63 97.6648C181.463 97.6648 181.112 97.5009 180.576 97.1731C180.04 96.8453 179.772 96.6241 179.772 96.5096C179.772 96.4368 179.848 96.3874 179.999 96.3614C180.149 96.3353 180.308 96.3223 180.475 96.3223C181.952 96.3223 183.976 96.0778 186.547 95.5887L186.547 93.575C185.839 93.575 185.267 93.6036 184.83 93.6609C184.393 93.7181 184.055 93.7987 183.815 93.9028C183.461 94.0797 183.186 94.2176 182.988 94.3165C182.79 94.4153 182.65 94.4648 182.566 94.4648C182.4 94.4648 182.067 94.3009 181.567 93.9731C181.068 93.6453 180.818 93.4085 180.818 93.2628C180.818 93.1692 180.943 93.1223 181.193 93.1223L181.817 93.1379C182.629 93.1379 183.451 93.1093 184.283 93.0521C185.116 92.9948 185.626 92.909 185.813 92.7945C186.302 92.524 186.615 92.3887 186.75 92.3887C186.927 92.3887 187.2 92.537 187.569 92.8335C187.939 93.1301 188.123 93.3617 188.123 93.5282C188.123 93.6114 188.082 93.7181 187.999 93.8482C187.915 93.9783 187.863 94.0745 187.842 94.137C187.811 95.0111 187.767 95.7786 187.71 96.4394C187.653 97.1002 187.541 97.6023 187.374 97.9457C187.208 98.2892 187.083 98.5389 187 98.695C186.875 98.9135 186.786 99.0228 186.734 99.0228C186.672 99.0228 186.641 98.9031 186.641 98.6638C186.641 98.1435 186.63 97.7506 186.609 97.4853C186.588 97.2199 186.568 96.9103 186.547 96.5565Z"/>
<path d="M202.703 97.4931C201.496 97.6492 200.528 97.7792 199.8 97.8833C198.457 98.081 197.526 98.2787 197.005 98.4765C196.724 98.6222 196.485 98.695 196.287 98.695C196.048 98.695 195.871 98.6066 195.757 98.4296C195.642 98.2527 195.585 98.0342 195.585 97.774C195.585 97.5035 195.632 97.2901 195.725 97.134C195.861 96.9571 195.954 96.7022 196.006 96.3692C196.058 96.0361 196.084 95.7135 196.084 95.4014L196.084 95.1516C195.97 94.9851 195.876 94.8602 195.803 94.777C195.658 94.6105 195.481 94.4648 195.273 94.3399C194.95 94.1422 194.789 93.9653 194.789 93.8092C194.789 93.6427 194.987 93.5594 195.382 93.5594C196.162 93.5594 196.808 93.5152 197.318 93.4267C197.828 93.3383 198.265 93.216 198.629 93.0599C198.754 92.9974 198.847 92.9506 198.91 92.9194C199.045 92.857 199.17 92.8257 199.284 92.8257C199.493 92.8257 199.722 92.909 199.971 93.0755C200.221 93.242 200.346 93.4241 200.346 93.6218C200.346 93.8716 200.133 94.0433 199.706 94.137L196.818 94.7614L196.818 96.6814C196.818 96.8062 196.823 96.9285 196.834 97.0482C196.844 97.1679 196.917 97.2277 197.052 97.2277L197.661 97.1496C198.285 97.0664 199.141 96.9441 200.229 96.7828C201.316 96.6215 202.141 96.4992 202.703 96.416L202.703 92.8414C202.661 92.654 202.354 92.2742 201.782 91.7018C201.532 91.4521 201.407 91.27 201.407 91.1555C201.407 91.0306 201.527 90.9682 201.766 90.9682C202.131 90.9682 202.578 91.0983 203.109 91.3584C203.712 91.6602 204.014 91.9672 204.014 92.2794C204.014 92.3522 204.001 92.4537 203.975 92.5838C203.949 92.7139 203.936 92.7945 203.936 92.8257L203.936 96.8999C203.936 97.4931 203.879 98.0004 203.764 98.4218C203.65 98.8433 203.478 99.2674 203.249 99.694C203.187 99.8189 203.119 99.923 203.046 100.006C203.026 100.027 202.994 100.058 202.953 100.1C202.89 100.1 202.859 99.9594 202.859 99.6784L202.859 99.1789C202.859 98.7835 202.833 98.3828 202.781 97.977C202.771 97.8417 202.745 97.6804 202.703 97.4931ZM201.111 99.9282C201.829 99.9282 202.453 100.173 202.984 100.662C203.515 101.151 203.78 101.702 203.78 102.316C203.78 102.774 203.608 103.232 203.265 103.69C202.838 104.262 202.292 104.549 201.626 104.549C200.814 104.549 200.138 104.283 199.597 103.753C199.108 103.274 198.863 102.743 198.863 102.16C198.863 101.536 199.05 101.021 199.425 100.615C199.841 100.157 200.403 99.9282 201.111 99.9282ZM201.485 100.849C201.028 100.849 200.627 101 200.283 101.302C199.94 101.604 199.768 101.9 199.768 102.192C199.768 102.545 199.914 102.852 200.205 103.113C200.497 103.373 200.866 103.503 201.314 103.503C201.699 103.503 202.055 103.365 202.383 103.089C202.711 102.813 202.875 102.514 202.875 102.192C202.875 101.848 202.732 101.539 202.445 101.263C202.159 100.987 201.839 100.849 201.485 100.849Z"/>
</g>
<path d="M183.279 76.6988C183.279 76.7613 183.217 76.7925 183.092 76.7925C182.437 76.7925 182.044 76.8757 181.914 77.0422C181.784 77.2087 181.719 77.7187 181.719 78.572L181.719 83.4735C181.719 84.2331 181.763 84.678 181.851 84.8081C181.94 84.9382 182.244 85.0032 182.764 85.0032L183.092 85.0032C183.207 85.0032 183.264 85.0396 183.264 85.1125L183.264 85.3466C183.264 85.4611 183.222 85.5183 183.139 85.5183L178.956 85.5183C178.893 85.5183 178.862 85.4767 178.862 85.3935L178.862 85.1125C178.862 85.0396 178.914 85.0032 179.018 85.0032L179.268 85.0032C179.799 85.0032 180.119 84.9122 180.228 84.73C180.337 84.5479 180.392 84.0146 180.392 83.13L180.392 77.9008C180.392 77.3804 180.332 77.0657 180.212 76.9564C180.093 76.8471 179.736 76.7925 179.143 76.7925C178.966 76.7925 178.878 76.7509 178.878 76.6676L178.878 76.4022C178.878 76.3398 178.919 76.3086 179.002 76.3086L183.155 76.3086C183.238 76.3086 183.279 76.345 183.279 76.4178L183.279 76.6988Z" fill="#000002" opacity="1" stroke="none"/>
<path d="M191.623 75.706C194.895 72.7973 198.41 77.5107 198.41 77.5107C198.41 77.5107 202.145 73.044 204.826 75.3988C207.507 77.7536 205.529 80.5525 203.487 82.9869C201.483 85.3758 198.311 86.5261 198.311 86.5261C198.311 86.5261 194.832 85.1662 192.732 82.7672C190.807 80.5695 189.963 77.1823 191.623 75.706Z" fill="#ec0014" fill-rule="nonzero" opacity="1" stroke="none"/>
</g>
</svg>
