<?xml version="1.0" encoding="UTF-8" standalone="no"?>
<!DOCTYPE svg PUBLIC "-//W3C//DTD SVG 1.1//EN" "http://www.w3.org/Graphics/SVG/1.1/DTD/svg11.dtd">
<!-- Created with Vectornator (http://vectornator.io/) -->
<svg height="880.0px" stroke-miterlimit="10" style="fill-rule:nonzero;clip-rule:evenodd;stroke-linecap:round;stroke-linejoin:round;" version="1.1" viewBox="0 0 400 880" width="400.0px" xml:space="preserve" xmlns="http://www.w3.org/2000/svg" xmlns:xlink="http://www.w3.org/1999/xlink">
<defs/>
<g id="레이어-1">
<g opacity="1">
<path d="M170.33 239.088C170.33 239.088 173.908 249.368 193.01 249.503C212.113 249.638 214.737 238.873 214.737 238.873C214.737 238.873 256.905 246.698 269.456 263.396C281.472 279.382 304.513 344.193 316.356 396.71C321.834 420.996 324.216 452.73 320.044 457.313L323.298 470.974L296.423 478.7C296.233 478.754 296.033 478.653 295.963 478.468L290.786 464.631C280.547 464.441 261.197 389.488 261.197 389.488C261.197 389.488 270.917 476.284 260.533 487.535L260.456 498.026C260.455 498.235 260.285 498.403 260.077 498.403L121.448 498.435C120.871 498.436 120.738 487.175 120.738 487.175C109.664 481.888 118.825 408.011 120.459 391.917C120.459 391.917 100.262 466.598 91.7772 466.585L88.8093 478.778C88.7582 478.988 88.5424 479.113 88.3349 479.053L60.5715 471.005C60.5715 471.005 62.9471 457.92 62.9471 457.92C58.7587 453.497 60.0204 434.99 66.5989 400.728C76.2373 350.53 93.266 285.044 108.74 266.84C124.73 248.029 170.33 239.088 170.33 239.088Z" fill="#2a2a2a" fill-rule="nonzero" opacity="1" stroke="none"/>
<path d="M165.427 240.291C165.427 240.291 168.994 254.395 193.672 254.395C218.35 254.395 219.633 240.171 219.633 240.171" fill="none" opacity="1" stroke="#545454" stroke-linecap="round" stroke-linejoin="round" stroke-width="1"/>
<path d="M70.5575 460.895C70.5575 460.895 75.6127 462.898 80.5231 464.291C85.4336 465.684 87.8151 466.798 91.7053 466.798" fill="none" opacity="1" stroke="#545454" stroke-linecap="round" stroke-linejoin="round" stroke-width="1"/>
<path d="M291.395 464.289C297.095 464.289 302.61 460.752 307.78 460.752" fill="none" opacity="1" stroke="#545454" stroke-linecap="round" stroke-linejoin="round" stroke-width="1"/>
<path d="M128.839 487.977C153.072 487.977 178.911 493.63 202.719 491.81C218.611 490.595 233.953 483.712 250.171 483.712" fill="none" opacity="1" stroke="#545454" stroke-linecap="round" stroke-linejoin="round" stroke-width="1"/>
</g>
</g>
</svg>
