<?xml version="1.0" encoding="UTF-8" standalone="no"?>
<!DOCTYPE svg PUBLIC "-//W3C//DTD SVG 1.1//EN" "http://www.w3.org/Graphics/SVG/1.1/DTD/svg11.dtd">
<!-- Created with Vectornator (http://vectornator.io/) -->
<svg height="880.0px" stroke-miterlimit="10" style="fill-rule:nonzero;clip-rule:evenodd;stroke-linecap:round;stroke-linejoin:round;" version="1.1" viewBox="0 0 400 880" width="400.0px" xml:space="preserve" xmlns="http://www.w3.org/2000/svg" xmlns:xlink="http://www.w3.org/1999/xlink">
<defs/>
<g id="T-shirts">
<path d="M169.757 239.81C169.757 239.81 173.334 250.09 192.437 250.225C211.54 250.36 214.458 239.662 214.458 239.662C214.458 239.662 257.087 249.113 268.883 264.118C280.679 279.123 319.625 468.167 319.625 468.167L296.189 474.627L259.091 349.975C258.903 349.269 255.845 349.548 255.843 350.279L260.077 498.363L121.45 498.49L122.965 349.283C122.97 348.782 119.056 348.563 118.932 349.049L87.5237 477.4L63.1776 469.206C63.1776 469.206 102.96 275.364 113.753 263.148C124.547 250.932 169.757 239.81 169.757 239.81Z" fill="#9ea8b4" fill-rule="nonzero" opacity="1" stroke="none"/>
</g>
</svg>
