<?xml version="1.0" encoding="UTF-8" standalone="no"?>
<!DOCTYPE svg PUBLIC "-//W3C//DTD SVG 1.1//EN" "http://www.w3.org/Graphics/SVG/1.1/DTD/svg11.dtd">
<!-- Created with Vectornator (http://vectornator.io/) -->
<svg height="880.0px" stroke-miterlimit="10" style="fill-rule:nonzero;clip-rule:evenodd;stroke-linecap:round;stroke-linejoin:round;" version="1.1" viewBox="0 0 400 880" width="400.0px" xml:space="preserve" xmlns="http://www.w3.org/2000/svg" xmlns:xlink="http://www.w3.org/1999/xlink">
<defs/>
<g id="body">
<g opacity="1">
<g opacity="1">
<path d="M177.566 206.878L208.332 206.878L208.332 253.469L177.566 253.469L177.566 206.878Z" fill="#eccfb8" fill-rule="nonzero" opacity="1" stroke="none"/>
<path d="M140.224 151.268C140.224 122.281 151.37 98.7827 192.709 98.7827C234.049 98.7827 245.195 122.281 245.195 151.268C245.195 180.256 221.697 223.914 192.709 223.914C163.722 223.914 140.224 180.256 140.224 151.268Z" fill="#eccfb8" fill-rule="nonzero" opacity="1" stroke="none"/>
<path d="M253.353 172.328C255.17 164.397 252.507 157.019 247.404 155.85C242.301 154.681 236.691 160.162 234.873 168.093C233.056 176.024 235.719 183.401 240.822 184.571C245.925 185.74 251.535 180.259 253.353 172.328Z" fill="#eccfb8" fill-rule="nonzero" opacity="1" stroke="none"/>
<path d="M131.553 172.328C129.736 164.397 132.399 157.019 137.502 155.85C142.605 154.681 148.215 160.162 150.033 168.093C151.85 176.024 149.187 183.401 144.084 184.571C138.981 185.74 133.371 180.259 131.553 172.328Z" fill="#eccfb8" fill-rule="nonzero" opacity="1" stroke="none"/>
</g>
<g opacity="1">
<path d="M164.545 155.92C164.545 151.349 168.25 147.644 172.821 147.644C177.391 147.644 181.096 151.349 181.096 155.92C181.096 160.491 177.391 164.196 172.821 164.196C168.25 164.196 164.545 160.491 164.545 155.92Z" fill="#fff8f1" fill-rule="nonzero" opacity="1" stroke="none"/>
<path d="M170.075 155.966C170.075 154.485 171.304 153.285 172.819 153.285C174.335 153.285 175.564 154.485 175.564 155.966C175.564 157.447 174.335 158.647 172.819 158.647C171.304 158.647 170.075 157.447 170.075 155.966Z" fill="#000002" fill-rule="nonzero" opacity="1" stroke="none"/>
</g>
<g opacity="1">
<path d="M205.605 155.92C205.605 151.349 209.31 147.644 213.881 147.644C218.452 147.644 222.157 151.349 222.157 155.92C222.157 160.491 218.452 164.196 213.881 164.196C209.31 164.196 205.605 160.491 205.605 155.92Z" fill="#fff8f1" fill-rule="nonzero" opacity="1" stroke="none"/>
<path d="M211.135 155.966C211.135 154.485 212.364 153.285 213.88 153.285C215.395 153.285 216.624 154.485 216.624 155.966C216.624 157.447 215.395 158.647 213.88 158.647C212.364 158.647 211.135 157.447 211.135 155.966Z" fill="#000002" fill-rule="nonzero" opacity="1" stroke="none"/>
</g>
<path d="M163.901 154.878C163.901 154.878 164.598 147.333 172.874 147.333C181.151 147.333 181.897 154.878 181.897 154.878L163.901 154.878Z" fill="#3395ff" fill-rule="nonzero" opacity="0" stroke="none"/>
<path d="M204.843 154.878C204.843 154.878 205.541 147.333 213.817 147.333C222.093 147.333 222.84 154.878 222.84 154.878L204.843 154.878Z" fill="#3395ff" fill-rule="nonzero" opacity="0" stroke="none"/>
<path d="M192.809 136.219L192.809 150.741" fill="none" opacity="0" stroke="#007aff" stroke-linecap="butt" stroke-linejoin="round" stroke-width="1"/>
<path d="M188.052 136.415C188.052 136.415 186.844 140.247 184.025 142.103C181.207 143.959 176.777 143.839 176.777 143.839" fill="none" opacity="0" stroke="#007aff" stroke-linecap="butt" stroke-linejoin="round" stroke-width="1"/>
<path d="M197.488 136.415C197.488 136.415 198.696 140.247 201.515 142.103C204.334 143.959 208.763 143.839 208.763 143.839" fill="none" opacity="0" stroke="#007aff" stroke-linecap="butt" stroke-linejoin="round" stroke-width="1"/>
<g opacity="1">
<path d="M178.556 197.547C178.556 197.547 181.181 194.59 192.231 194.59C203.281 194.59 205.851 197.547 205.851 197.547" fill="#eccfb8" fill-rule="nonzero" opacity="1" stroke="#604030" stroke-linecap="butt" stroke-linejoin="round" stroke-width="1"/>
<path d="M184.218 193.093C184.218 191.637 186.284 190.457 188.832 190.457C191.38 190.457 193.446 191.637 193.446 193.093C193.446 194.549 191.38 195.73 188.832 195.73C186.284 195.73 184.218 194.549 184.218 193.093Z" fill="#eccfb8" fill-rule="nonzero" opacity="1" stroke="#604030" stroke-linecap="butt" stroke-linejoin="round" stroke-width="1"/>
<path d="M192.445 193.093C192.445 191.637 194.511 190.457 197.059 190.457C199.607 190.457 201.673 191.637 201.673 193.093C201.673 194.549 199.607 195.73 197.059 195.73C194.511 195.73 192.445 194.549 192.445 193.093Z" fill="#eccfb8" fill-rule="nonzero" opacity="1" stroke="#604030" stroke-linecap="butt" stroke-linejoin="round" stroke-width="1"/>
<path d="M184.696 196.899C184.696 195.443 188.336 194.263 192.826 194.263C197.316 194.263 200.956 195.443 200.956 196.899C200.956 198.355 197.316 199.536 192.826 199.536C188.336 199.536 184.696 198.355 184.696 196.899Z" fill="#eccfb8" fill-rule="nonzero" opacity="1" stroke="#604030" stroke-linecap="butt" stroke-linejoin="round" stroke-width="1"/>
</g>
</g>
<g opacity="1">
<path d="M128.784 476.89C128.784 476.89 128.847 441.822 139.33 442.844C153.029 444.181 172.157 482.376 172.157 482.376L157.08 787.769C156.9 791.63 145.408 796.235 138.81 796.227L138.208 796.109L136.571 781.979C136.571 781.979 124.746 492.322 128.784 476.89Z" fill="#eccfb8" fill-rule="nonzero" opacity="1" stroke="none"/>
<path d="M250.991 476.89C250.991 476.89 250.931 441.822 240.87 442.844C227.723 444.181 209.364 482.376 209.364 482.376L223.691 772.801C223.995 779.579 224.452 787.242 224.274 790.946C224.048 795.666 245.105 782.952 245.105 782.952C245.105 782.952 254.867 492.322 250.991 476.89Z" fill="#eccfb8" fill-rule="nonzero" opacity="1" stroke="none"/>
<path d="M249.496 257.154C262.057 262.254 269.345 275.788 276.04 291.201C282.735 306.613 317.966 469.533 317.966 469.533L299.798 474.462L260.613 327.326C260.613 327.326 256.199 301.696 241.728 300.929C221.793 299.872 242.803 254.437 249.496 257.154Z" fill="#eccfb8" fill-rule="nonzero" opacity="1" stroke="none"/>
<path d="M135.272 257.154C122.711 262.254 115.423 275.788 108.728 291.201C102.032 306.613 66.8021 469.533 66.8021 469.533L84.9701 474.462L124.155 327.326C124.155 327.326 125.948 309.352 137.527 299.097C152.29 286.023 141.881 254.471 135.272 257.154Z" fill="#eccfb8" fill-rule="nonzero" opacity="1" stroke="none"/>
<path d="M136.248 256.999L177.535 237.905L208.301 238.297L249.048 257.045L241.596 300.921L250.095 469.501L212.311 542.106C212.311 542.106 206.92 521.934 191.078 521.934C175.235 521.934 169.29 540.437 169.29 540.437L129.082 473.799L140.684 295.511L136.248 256.999Z" fill="#eccfb8" fill-rule="nonzero" opacity="1" stroke="none"/>
</g>
<g opacity="1">
<path d="M136.404 796.709C136.404 796.709 126.198 808.545 119.25 818.307C115.081 824.165 112.943 828.2 112.943 828.2C112.943 828.2 107.603 831.488 109.108 834.127C109.741 835.238 113.32 832.486 114.477 831.759C114.631 831.663 114.697 831.894 114.697 831.894C114.697 831.894 111.895 833.463 111.077 834.713C110.258 835.964 111.213 837.237 112.038 836.892C113.669 836.211 116.345 833.282 116.49 833.163C116.636 833.044 116.654 833.246 116.654 833.246C116.654 833.246 112.208 836.623 113.445 838.017C113.792 838.408 114.84 838.735 115.763 837.508C116.886 836.017 119.162 834.107 119.318 834.088C119.543 834.06 119.495 834.237 119.495 834.237C119.495 834.237 115.949 836.862 115.536 838.111C115.123 839.361 117.492 840.28 119.179 838.535C120.283 837.393 121.104 836.07 122.223 835.398C122.907 834.986 122.605 835.674 122.605 835.674C122.605 835.674 117.546 838.8 120.246 841.036C122.947 843.272 127.691 839.988 129.086 838.976C132.576 836.448 135.24 833.593 137.082 828.843C139.244 823.266 145.727 819.009 145.727 819.009C153.395 815.611 158.234 810.638 158.584 805.861C158.933 801.085 157.957 798.984 157.475 794.216C156.994 789.448 156.849 779.856 156.849 779.856L136.458 779.181L136.404 796.709Z" fill="#eccfb8" fill-rule="nonzero" opacity="1" stroke="none"/>
<path d="M245.147 796.709C245.147 796.709 255.352 808.545 262.3 818.307C266.469 824.165 268.608 828.2 268.608 828.2C268.608 828.2 273.948 831.488 272.443 834.127C271.809 835.238 268.231 832.486 267.073 831.759C266.919 831.663 266.854 831.894 266.854 831.894C266.854 831.894 269.655 833.463 270.474 834.713C271.292 835.964 270.338 837.237 269.513 836.892C267.882 836.211 265.206 833.282 265.06 833.163C264.915 833.044 264.896 833.246 264.896 833.246C264.896 833.246 269.342 836.623 268.105 838.017C267.759 838.408 266.71 838.735 265.787 837.508C264.664 836.017 262.389 834.107 262.233 834.088C262.007 834.06 262.055 834.237 262.055 834.237C262.055 834.237 265.602 836.862 266.014 838.111C266.427 839.361 264.058 840.28 262.371 838.535C261.267 837.393 260.446 836.07 259.328 835.398C258.643 834.986 258.946 835.674 258.946 835.674C258.946 835.674 264.005 838.8 261.304 841.036C258.604 843.272 253.86 839.988 252.464 838.976C248.974 836.448 246.311 833.593 244.469 828.843C242.306 823.266 235.824 819.009 235.824 819.009C228.156 815.611 223.316 810.638 222.967 805.861C222.617 801.085 223.593 798.984 224.075 794.216C224.557 789.448 224.702 779.856 224.702 779.856L245.093 779.181L245.147 796.709Z" fill="#eccfb8" fill-rule="nonzero" opacity="1" stroke="none"/>
<path d="M246.183 796.321L274.722 816.517C274.722 816.517 295.803 821.723 282.209 825.967C268.615 830.211 252.037 819.774 235.784 818.865C219.532 817.955 218.469 811.909 218.829 807.237C219.189 802.564 223.554 798.839 224.036 794.072C224.517 789.304 224.662 779.712 224.662 779.712C224.662 779.712 246.133 778.573 245.414 778.638C245.072 778.668 245.187 782.516 245.312 786.938C245.437 791.361 246.183 796.321 246.183 796.321Z" fill="#eccfb8" fill-rule="nonzero" opacity="0" stroke="none"/>
</g>
<g opacity="1">
<path d="M318.215 468.125C318.215 468.125 321.285 468.537 325.195 474.801C329.105 481.065 333.856 493.181 333.856 493.181C334.248 493.962 334.335 495.72 333.367 496.127C332.398 496.534 329.983 494.809 329.983 494.809C329.983 494.809 328.226 491.898 326.962 490.652C325.698 489.406 323.552 487.554 323.03 487.963C322.508 488.372 323.672 491.247 323.923 492.1L331.38 517.434C331.38 517.434 331.655 523.052 329.465 519.916C327.276 516.781 322.101 503.678 321.512 502.687C320.923 501.696 319.43 501.273 319.594 502.443C319.758 503.612 324.381 516.271 325.09 521.657C325.798 527.044 323.946 526.868 322.428 523.987C320.91 521.106 314.993 504.124 315.015 504.046C315.015 504.046 312.947 503.386 313.129 504.646C313.312 505.906 316.782 518.459 317.045 523.413C317.307 528.366 314.18 524.46 314.18 524.46L308.466 505.287C308.466 505.287 306.443 504.544 306.44 505.24C306.437 505.935 309.535 517.468 309.446 521.334C309.356 525.201 306.995 523.534 306.081 520.707C305.166 517.879 300.597 503.388 300.597 503.388C300.597 503.388 298.394 491.42 297.873 482.59C297.351 473.759 299.409 468.033 299.409 468.033L317.456 467.401" fill="#eccfb8" fill-rule="nonzero" opacity="1" stroke="none"/>
<path d="M67.1525 468.053C67.1525 468.053 64.083 468.465 60.1728 474.729C56.2625 480.993 51.5115 493.109 51.5115 493.109C51.1202 493.89 51.0327 495.648 52.001 496.055C52.9693 496.462 55.3848 494.737 55.3848 494.737C55.3848 494.737 57.142 491.826 58.4061 490.58C59.6701 489.334 61.8154 487.482 62.3375 487.891C62.8596 488.299 61.6957 491.175 61.4446 492.028L53.9876 517.361C53.9876 517.361 53.7131 522.979 55.9026 519.844C58.092 516.709 63.2667 503.606 63.8557 502.615C64.4447 501.624 65.9374 501.201 65.7735 502.37C65.6097 503.54 60.9864 516.199 60.2779 521.585C59.5694 526.971 61.4218 526.796 62.9396 523.915C64.4574 521.034 70.3746 504.052 70.3522 503.974C70.3522 503.974 72.421 503.314 72.2382 504.574C72.0555 505.834 68.5855 518.387 68.3229 523.341C68.0602 528.294 71.1876 524.388 71.1876 524.388L76.902 505.215C76.902 505.215 78.9246 504.472 78.9278 505.168C78.9311 505.863 75.8322 517.395 75.922 521.262C76.0117 525.129 78.3724 523.462 79.2869 520.635C80.2015 517.807 84.7712 503.315 84.7712 503.315C84.7712 503.315 86.974 491.348 87.4952 482.517C88.0164 473.687 85.959 467.961 85.959 467.961L67.912 467.329" fill="#eccfb8" fill-rule="nonzero" opacity="1" stroke="none"/>
</g>
</g>
</svg>
