<?xml version="1.0" encoding="UTF-8" standalone="no"?>
<!DOCTYPE svg PUBLIC "-//W3C//DTD SVG 1.1//EN" "http://www.w3.org/Graphics/SVG/1.1/DTD/svg11.dtd">
<!-- Created with Vectornator (http://vectornator.io/) -->
<svg height="100%" stroke-miterlimit="10" style="fill-rule:nonzero;clip-rule:evenodd;stroke-linecap:round;stroke-linejoin:round;" version="1.1" viewBox="123.666 82.5038 135.71 187.631" width="100%" xml:space="preserve" xmlns="http://www.w3.org/2000/svg" xmlns:xlink="http://www.w3.org/1999/xlink">
<defs/>
<g id="Hair-middle">
<path d="M171.619 216.152L177.566 219.943L177.566 237.905L171.311 240.798C171.311 240.798 170.59 235.957 170.561 228.936C170.532 221.914 171.619 216.152 171.619 216.152Z" fill="#3d8121" fill-rule="nonzero" opacity="1" stroke="none"/>
<path d="M212.429 217.144L208.332 219.686L208.332 238.297L212.5 240.215C212.5 240.215 212.578 238.376 212.677 229.197C212.775 220.019 212.429 217.144 212.429 217.144Z" fill="#3d8121" fill-rule="nonzero" opacity="1" stroke="none"/>
<path d="M247.637 118.019C239.982 102.103 227.705 83.0038 193.569 83.0038C159.432 83.0038 146.433 99.4769 138.614 116.926C130.795 134.376 124.166 242.821 124.166 242.821C124.166 242.821 143.342 259.733 152.422 264.304C161.502 268.876 171.127 267.305 171.127 267.305C171.127 267.305 175.151 227.168 176.06 216.396C178.309 189.748 181.072 175.432 184.329 158.949C187.586 142.466 192.006 132.415 194.638 132.415C197.269 132.415 200.344 145.919 203.237 158.505C205.486 168.288 209.308 213.633 209.604 220.546C210.038 230.682 211.54 271.059 211.54 269.596C211.54 269.596 229.966 266.967 239.587 260.326C249.208 253.685 258.876 245.069 258.876 245.069C258.876 245.069 255.292 133.934 247.637 118.019Z" fill="#4b9c29" fill-rule="nonzero" opacity="1" stroke="#007aff" stroke-linecap="round" stroke-linejoin="round" stroke-width="1"/>
</g>
</svg>
