<?xml version="1.0" encoding="UTF-8" standalone="no"?>
<!DOCTYPE svg PUBLIC "-//W3C//DTD SVG 1.1//EN" "http://www.w3.org/Graphics/SVG/1.1/DTD/svg11.dtd">
<!-- Created with Vectornator (http://vectornator.io/) -->
<svg height="100%" stroke-miterlimit="10" style="fill-rule:nonzero;clip-rule:evenodd;stroke-linecap:round;stroke-linejoin:round;" version="1.1" viewBox="132.084 76.7589 118.99 182.169" width="100%" xml:space="preserve" xmlns="http://www.w3.org/2000/svg" xmlns:xlink="http://www.w3.org/1999/xlink">
<defs/>
<g id="Hair-long-straight">
<path d="M142.479 156.668C147.02 146.669 153.744 133.932 162.617 126.297C172.635 117.677 185.055 114.768 193.808 114.768C210.312 114.768 217.395 123.651 224.68 130.937C231.966 138.222 241.536 152.27 241.536 157.151C241.536 157.151 246.295 155.6 247.602 155.941C248.909 156.281 250.202 157.29 250.202 157.29C250.202 138.627 257.102 112.98 232.093 94.1403C207.085 75.3009 191.861 74.1103 185.408 79.6587C185.146 79.8835 185.941 80.091 185.331 79.547C183.398 77.8217 162.065 77.1996 147.934 97.5173C133.803 117.835 130.875 135.46 132.478 160.079C132.478 160.079 133.421 157.964 136.186 156.603C138.95 155.241 142.479 156.668 142.479 156.668Z" fill="#4b75a3" fill-rule="nonzero" opacity="1" stroke="none"/>
<path d="M247.852 182.267C247.852 198.524 248.414 215.379 248.414 231.644C248.414 235.037 248.728 258.928 248.728 258.928L208.229 255.54L208.229 219.749C208.229 219.749 217.819 213.916 225.232 204.768C232.645 195.62 237.88 183.158 237.88 183.158C237.88 183.158 239.799 184.857 242.398 184.785C244.996 184.713 247.852 182.267 247.852 182.267Z" fill="#4b75a3" fill-rule="nonzero" opacity="1" stroke="none"/>
<path d="M135.344 224.525C135.808 229.267 133.692 258.567 133.692 257.855L178.365 255.822L177.563 219.946C177.563 219.946 168.147 214.618 160.578 205.32C153.009 196.022 147.288 182.755 147.288 182.755C147.288 182.755 145.589 184.509 143.285 184.7C140.981 184.89 136.221 181.491 136.221 181.491" fill="#4b75a3" fill-rule="nonzero" opacity="1" stroke="none"/>
<path d="M174.321 120.487C174.321 126.338 164.386 138.324 157.56 138.324" fill="none" opacity="1" stroke="#4b75a3" stroke-linecap="round" stroke-linejoin="round" stroke-width="1"/>
<path d="M219.048 118.187C222.609 122.83 222.023 138.386 216.607 142.541" fill="none" opacity="1" stroke="#4b75a3" stroke-linecap="round" stroke-linejoin="round" stroke-width="1"/>
<path d="M172.421 120.755C172.421 125.427 165.754 130.889 161.907 133.363C161.563 133.584 154.551 137.434 154.551 136.915" fill="none" opacity="1" stroke="#4b75a3" stroke-linecap="round" stroke-linejoin="round" stroke-width="1"/>
<path d="M217.703 119.556C220.547 123.263 218.583 131.655 217.036 135.96C216.898 136.344 213.678 143.668 213.361 143.255" fill="none" opacity="1" stroke="#4b75a3" stroke-linecap="round" stroke-linejoin="round" stroke-width="1"/>
<g opacity="1">
<path d="M173.394 105.357L216.775 105.357C216.775 105.357 219.149 105.202 219.149 115.67C219.149 126.138 216.775 125.367 216.775 125.367L173.394 125.367L173.394 105.357Z" fill="#f8cbcd" fill-rule="nonzero" opacity="1" stroke="#ff6c75" stroke-linecap="butt" stroke-linejoin="round" stroke-width="1"/>
<path d="M170.705 115.168C170.705 109.62 171.696 105.123 172.917 105.123C174.139 105.123 175.129 109.62 175.129 115.168C175.129 120.716 174.139 125.214 172.917 125.214C171.696 125.214 170.705 120.716 170.705 115.168Z" fill="#f8cbcd" fill-rule="nonzero" opacity="1" stroke="#ff6c75" stroke-linecap="butt" stroke-linejoin="round" stroke-width="1"/>
<path d="M174.547 107.551L218.545 107.551" fill="none" opacity="1" stroke="#ff6c75" stroke-linecap="butt" stroke-linejoin="round" stroke-opacity="0.647622" stroke-width="1"/>
<path d="M174.547 111.501L218.545 111.501" fill="none" opacity="1" stroke="#ff6c75" stroke-linecap="butt" stroke-linejoin="round" stroke-opacity="0.647622" stroke-width="1"/>
<path d="M174.547 115.683L218.545 115.683" fill="none" opacity="1" stroke="#ff6c75" stroke-linecap="butt" stroke-linejoin="round" stroke-opacity="0.647622" stroke-width="1"/>
<path d="M174.547 119.777L218.545 119.777" fill="none" opacity="1" stroke="#ff6c75" stroke-linecap="butt" stroke-linejoin="round" stroke-opacity="0.647622" stroke-width="1"/>
<path d="M174.435 123.211L218.433 123.211" fill="none" opacity="1" stroke="#ff6c75" stroke-linecap="butt" stroke-linejoin="round" stroke-opacity="0.647622" stroke-width="1"/>
</g>
</g>
</svg>
