<?xml version="1.0" encoding="UTF-8" standalone="no"?>
<!DOCTYPE svg PUBLIC "-//W3C//DTD SVG 1.1//EN" "http://www.w3.org/Graphics/SVG/1.1/DTD/svg11.dtd">
<!-- Created with Vectornator (http://vectornator.io/) -->
<svg height="880.0px" stroke-miterlimit="10" style="fill-rule:nonzero;clip-rule:evenodd;stroke-linecap:round;stroke-linejoin:round;" version="1.1" viewBox="0 0 400 880" width="400.0px" xml:space="preserve" xmlns="http://www.w3.org/2000/svg" xmlns:xlink="http://www.w3.org/1999/xlink">
<defs/>
<g id="crocs">
<g opacity="1">
<path d="M224.141 792.68C220.623 795.291 218.604 799.737 218.828 806.274C219.249 818.563 225.801 822.493 236.578 822.493C237.554 822.493 238.488 822.23 239.391 821.868C237.484 820.095 235.828 819.024 235.828 819.024C228.16 815.626 223.303 810.644 222.953 805.868C222.604 801.091 223.597 798.979 224.078 794.211C224.13 793.702 224.097 793.281 224.141 792.68Z" fill="#ae212d" fill-rule="nonzero" opacity="1" stroke="none"/>
<path d="M245.141 792.461L245.141 796.711C245.141 796.711 247.963 799.992 251.609 804.461C252.882 801.015 253.766 798.18 253.766 798.18C253.766 798.18 250.581 794.908 245.141 792.461Z" fill="#ae212d" fill-rule="nonzero" opacity="1" stroke="none"/>
<path d="M136.391 792.743C131.348 795.154 128.359 798.18 128.359 798.18C128.359 798.18 129.168 800.758 130.328 803.961C133.785 799.727 136.391 796.711 136.391 796.711L136.391 792.743Z" fill="#ae212d" fill-rule="nonzero" opacity="1" stroke="none"/>
<path d="M157.391 792.305C157.443 793.075 157.42 793.578 157.484 794.211C157.966 798.979 158.928 801.091 158.578 805.868C158.229 810.644 153.402 815.626 145.734 819.024C145.734 819.024 144.144 820.093 142.359 821.711C143.374 822.174 144.436 822.493 145.547 822.493C156.324 822.493 162.876 818.563 163.297 806.274C163.533 799.382 161.277 794.841 157.391 792.305Z" fill="#ae212d" fill-rule="nonzero" opacity="1" stroke="none"/>
</g>
<g opacity="1">
<path d="M133.501 799.815C136.088 801.56 142.963 806.701 153.051 803.356C160.063 801.032 161.182 797.943 160.662 796.766C160.552 796.517 160.141 795.551 159.184 794.483C158.265 793.457 157.362 792.923 157.362 792.923C157.362 792.923 157.288 792.132 157.302 792.123C157.352 792.092 159.769 793.569 161.275 796.317C162.781 799.064 162.947 801.077 162.947 801.077C162.947 801.077 165.692 804.552 165.547 807.177C165.403 809.803 164.329 812.911 160.182 818.343C156.036 823.776 151.967 825.996 149.893 827.479C147.82 828.963 143.791 825.867 143.285 826.615C142.779 827.363 142.864 833.314 141.68 835.244C140.495 837.175 133.313 846.8 126.164 851.186C119.014 855.571 115.621 855.606 108.308 854.56C100.996 853.514 96.5365 846.364 96.5365 846.364C96.5365 846.364 91.5739 837.527 96.2613 828.732C100.949 819.937 112.647 816.394 115.664 811.823C118.682 807.251 128.507 796.831 134.614 793.147L136.418 792.272L136.415 793.028C136.415 793.028 134.223 794.326 133.291 795.023C132.359 795.72 131.671 798.58 133.501 799.815Z" fill="#d22534" fill-rule="nonzero" opacity="1" stroke="none"/>
<path d="M105.687 835.792C105.687 835.146 106.217 834.622 106.87 834.622C107.524 834.622 108.053 835.146 108.053 835.792C108.053 836.438 107.524 836.961 106.87 836.961C106.217 836.961 105.687 836.438 105.687 835.792Z" fill="#ffffff" fill-rule="nonzero" opacity="1" stroke="none"/>
<path d="M106.031 830.481C106.031 829.836 106.561 829.312 107.214 829.312C107.868 829.312 108.398 829.836 108.398 830.481C108.398 831.127 107.868 831.651 107.214 831.651C106.561 831.651 106.031 831.127 106.031 830.481Z" fill="#ffffff" fill-rule="nonzero" opacity="1" stroke="none"/>
<path d="M114.404 826.54C114.404 825.894 114.934 825.371 115.587 825.371C116.241 825.371 116.771 825.894 116.771 826.54C116.771 827.186 116.241 827.709 115.587 827.709C114.934 827.709 114.404 827.186 114.404 826.54Z" fill="#ffffff" fill-rule="nonzero" opacity="1" stroke="none"/>
<path d="M113.628 821.014C113.628 820.368 114.158 819.845 114.812 819.845C115.465 819.845 115.995 820.368 115.995 821.014C115.995 821.66 115.465 822.184 114.812 822.184C114.158 822.184 113.628 821.66 113.628 821.014Z" fill="#ffffff" fill-rule="nonzero" opacity="1" stroke="none"/>
<path d="M121.818 817.043C121.818 816.397 122.347 815.874 123.001 815.874C123.654 815.874 124.184 816.397 124.184 817.043C124.184 817.689 123.654 818.213 123.001 818.213C122.347 818.213 121.818 817.689 121.818 817.043Z" fill="#ffffff" fill-rule="nonzero" opacity="1" stroke="none"/>
<path d="M110.868 836.866C110.868 836.22 111.397 835.697 112.051 835.697C112.704 835.697 113.234 836.22 113.234 836.866C113.234 837.512 112.704 838.035 112.051 838.035C111.397 838.035 110.868 837.512 110.868 836.866Z" fill="#ffffff" fill-rule="nonzero" opacity="1" stroke="none"/>
<path d="M111.212 831.556C111.212 830.91 111.742 830.386 112.395 830.386C113.049 830.386 113.578 830.91 113.578 831.556C113.578 832.202 113.049 832.725 112.395 832.725C111.742 832.725 111.212 832.202 111.212 831.556Z" fill="#ffffff" fill-rule="nonzero" opacity="1" stroke="none"/>
<path d="M119.585 827.614C119.585 826.968 120.115 826.445 120.768 826.445C121.422 826.445 121.951 826.968 121.951 827.614C121.951 828.26 121.422 828.784 120.768 828.784C120.115 828.784 119.585 828.26 119.585 827.614Z" fill="#ffffff" fill-rule="nonzero" opacity="1" stroke="none"/>
<path d="M118.809 822.089C118.809 821.443 119.339 820.919 119.992 820.919C120.646 820.919 121.176 821.443 121.176 822.089C121.176 822.734 120.646 823.258 119.992 823.258C119.339 823.258 118.809 822.734 118.809 822.089Z" fill="#ffffff" fill-rule="nonzero" opacity="1" stroke="none"/>
<path d="M126.998 818.117C126.998 817.472 127.528 816.948 128.182 816.948C128.835 816.948 129.365 817.472 129.365 818.117C129.365 818.763 128.835 819.287 128.182 819.287C127.528 819.287 126.998 818.763 126.998 818.117Z" fill="#ffffff" fill-rule="nonzero" opacity="1" stroke="none"/>
<path d="M116.034 837.812C116.034 837.166 116.563 836.643 117.217 836.643C117.87 836.643 118.4 837.166 118.4 837.812C118.4 838.458 117.87 838.982 117.217 838.982C116.563 838.982 116.034 838.458 116.034 837.812Z" fill="#ffffff" fill-rule="nonzero" opacity="1" stroke="none"/>
<path d="M116.378 832.502C116.378 831.856 116.908 831.333 117.561 831.333C118.215 831.333 118.744 831.856 118.744 832.502C118.744 833.148 118.215 833.672 117.561 833.672C116.908 833.672 116.378 833.148 116.378 832.502Z" fill="#ffffff" fill-rule="nonzero" opacity="1" stroke="none"/>
<path d="M124.751 828.561C124.751 827.915 125.281 827.391 125.934 827.391C126.588 827.391 127.117 827.915 127.117 828.561C127.117 829.206 126.588 829.73 125.934 829.73C125.281 829.73 124.751 829.206 124.751 828.561Z" fill="#ffffff" fill-rule="nonzero" opacity="1" stroke="none"/>
<path d="M123.975 823.035C123.975 822.389 124.505 821.865 125.158 821.865C125.812 821.865 126.342 822.389 126.342 823.035C126.342 823.681 125.812 824.204 125.158 824.204C124.505 824.204 123.975 823.681 123.975 823.035Z" fill="#ffffff" fill-rule="nonzero" opacity="1" stroke="none"/>
<path d="M132.165 819.064C132.165 818.418 132.694 817.894 133.348 817.894C134.001 817.894 134.531 818.418 134.531 819.064C134.531 819.71 134.001 820.233 133.348 820.233C132.694 820.233 132.165 819.71 132.165 819.064Z" fill="#ffffff" fill-rule="nonzero" opacity="1" stroke="none"/>
<path d="M136.418 792.272C136.418 792.272 132.85 794.383 132.85 794.383C132.85 794.383 128.74 797.819 135.035 802.633C141.329 807.447 157.154 806.549 157.154 806.549C157.154 806.549 159.629 806.237 159.674 808.827C159.719 811.417 157.105 811.339 157.105 811.339C157.105 811.339 142.328 813.117 132.371 807.088C122.414 801.058 128.755 795.099 128.755 795.099C128.755 795.099 133.184 791.661 136.418 792.272Z" fill="#623a3a" fill-rule="nonzero" opacity="1" stroke="none"/>
<path d="M155.304 808.995C155.304 808.163 156.044 807.489 156.957 807.489C157.871 807.489 158.611 808.163 158.611 808.995C158.611 809.826 157.871 810.5 156.957 810.5C156.044 810.5 155.304 809.826 155.304 808.995Z" fill="#d22534" fill-rule="nonzero" opacity="1" stroke="none"/>
</g>
<g opacity="1">
<path d="M247.913 799.815C245.326 801.56 238.451 806.701 228.363 803.356C221.351 801.032 220.232 797.943 220.752 796.766C220.862 796.517 221.273 795.551 222.23 794.483C223.149 793.457 224.052 792.923 224.052 792.923C224.052 792.923 224.126 792.132 224.112 792.123C224.062 792.092 221.645 793.569 220.139 796.317C218.632 799.064 218.467 801.077 218.467 801.077C218.467 801.077 215.722 804.552 215.866 807.177C216.011 809.803 217.085 812.911 221.231 818.343C225.378 823.776 229.447 825.996 231.521 827.479C233.594 828.963 237.623 825.867 238.129 826.615C238.635 827.363 238.55 833.314 239.734 835.244C240.919 837.175 248.101 846.8 255.25 851.186C262.4 855.571 265.793 855.606 273.105 854.56C280.418 853.514 284.877 846.364 284.877 846.364C284.877 846.364 289.84 837.527 285.153 828.732C280.465 819.937 268.767 816.394 265.749 811.823C262.732 807.251 252.907 796.831 246.8 793.147L244.996 792.272L244.999 793.028C244.999 793.028 247.191 794.326 248.123 795.023C249.055 795.72 249.743 798.58 247.913 799.815Z" fill="#d22534" fill-rule="nonzero" opacity="1" stroke="none"/>
<path d="M275.727 835.792C275.727 835.146 275.197 834.622 274.544 834.622C273.89 834.622 273.361 835.146 273.361 835.792C273.361 836.438 273.89 836.961 274.544 836.961C275.197 836.961 275.727 836.438 275.727 835.792Z" fill="#ffffff" fill-rule="nonzero" opacity="1" stroke="none"/>
<path d="M275.383 830.481C275.383 829.836 274.853 829.312 274.2 829.312C273.546 829.312 273.016 829.836 273.016 830.481C273.016 831.127 273.546 831.651 274.2 831.651C274.853 831.651 275.383 831.127 275.383 830.481Z" fill="#ffffff" fill-rule="nonzero" opacity="1" stroke="none"/>
<path d="M267.01 826.54C267.01 825.894 266.48 825.371 265.827 825.371C265.173 825.371 264.643 825.894 264.643 826.54C264.643 827.186 265.173 827.709 265.827 827.709C266.48 827.709 267.01 827.186 267.01 826.54Z" fill="#ffffff" fill-rule="nonzero" opacity="1" stroke="none"/>
<path d="M267.786 821.014C267.786 820.368 267.256 819.845 266.602 819.845C265.949 819.845 265.419 820.368 265.419 821.014C265.419 821.66 265.949 822.184 266.602 822.184C267.256 822.184 267.786 821.66 267.786 821.014Z" fill="#ffffff" fill-rule="nonzero" opacity="1" stroke="none"/>
<path d="M259.596 817.043C259.596 816.397 259.066 815.874 258.413 815.874C257.759 815.874 257.23 816.397 257.23 817.043C257.23 817.689 257.759 818.213 258.413 818.213C259.066 818.213 259.596 817.689 259.596 817.043Z" fill="#ffffff" fill-rule="nonzero" opacity="1" stroke="none"/>
<path d="M270.546 836.866C270.546 836.22 270.017 835.697 269.363 835.697C268.71 835.697 268.18 836.22 268.18 836.866C268.18 837.512 268.71 838.035 269.363 838.035C270.017 838.035 270.546 837.512 270.546 836.866Z" fill="#ffffff" fill-rule="nonzero" opacity="1" stroke="none"/>
<path d="M270.202 831.556C270.202 830.91 269.672 830.386 269.019 830.386C268.365 830.386 267.836 830.91 267.836 831.556C267.836 832.202 268.365 832.725 269.019 832.725C269.672 832.725 270.202 832.202 270.202 831.556Z" fill="#ffffff" fill-rule="nonzero" opacity="1" stroke="none"/>
<path d="M261.829 827.614C261.829 826.968 261.299 826.445 260.646 826.445C259.992 826.445 259.463 826.968 259.463 827.614C259.463 828.26 259.992 828.784 260.646 828.784C261.299 828.784 261.829 828.26 261.829 827.614Z" fill="#ffffff" fill-rule="nonzero" opacity="1" stroke="none"/>
<path d="M262.605 822.089C262.605 821.443 262.075 820.919 261.422 820.919C260.768 820.919 260.238 821.443 260.238 822.089C260.238 822.734 260.768 823.258 261.422 823.258C262.075 823.258 262.605 822.734 262.605 822.089Z" fill="#ffffff" fill-rule="nonzero" opacity="1" stroke="none"/>
<path d="M254.415 818.117C254.415 817.472 253.886 816.948 253.232 816.948C252.579 816.948 252.049 817.472 252.049 818.117C252.049 818.763 252.579 819.287 253.232 819.287C253.886 819.287 254.415 818.763 254.415 818.117Z" fill="#ffffff" fill-rule="nonzero" opacity="1" stroke="none"/>
<path d="M265.38 837.812C265.38 837.166 264.85 836.643 264.197 836.643C263.544 836.643 263.014 837.166 263.014 837.812C263.014 838.458 263.544 838.982 264.197 838.982C264.85 838.982 265.38 838.458 265.38 837.812Z" fill="#ffffff" fill-rule="nonzero" opacity="1" stroke="none"/>
<path d="M265.036 832.502C265.036 831.856 264.506 831.333 263.853 831.333C263.199 831.333 262.67 831.856 262.67 832.502C262.67 833.148 263.199 833.672 263.853 833.672C264.506 833.672 265.036 833.148 265.036 832.502Z" fill="#ffffff" fill-rule="nonzero" opacity="1" stroke="none"/>
<path d="M256.663 828.561C256.663 827.915 256.133 827.391 255.48 827.391C254.826 827.391 254.297 827.915 254.297 828.561C254.297 829.206 254.826 829.73 255.48 829.73C256.133 829.73 256.663 829.206 256.663 828.561Z" fill="#ffffff" fill-rule="nonzero" opacity="1" stroke="none"/>
<path d="M257.439 823.035C257.439 822.389 256.909 821.865 256.255 821.865C255.602 821.865 255.072 822.389 255.072 823.035C255.072 823.681 255.602 824.204 256.255 824.204C256.909 824.204 257.439 823.681 257.439 823.035Z" fill="#ffffff" fill-rule="nonzero" opacity="1" stroke="none"/>
<path d="M249.249 819.064C249.249 818.418 248.72 817.894 248.066 817.894C247.413 817.894 246.883 818.418 246.883 819.064C246.883 819.71 247.413 820.233 248.066 820.233C248.72 820.233 249.249 819.71 249.249 819.064Z" fill="#ffffff" fill-rule="nonzero" opacity="1" stroke="none"/>
<path d="M244.996 792.272C244.996 792.272 248.564 794.383 248.564 794.383C248.564 794.383 252.674 797.819 246.379 802.633C240.084 807.447 224.26 806.549 224.26 806.549C224.26 806.549 221.785 806.237 221.74 808.827C221.695 811.417 224.309 811.339 224.309 811.339C224.309 811.339 239.086 813.117 249.043 807.088C259 801.058 252.658 795.099 252.658 795.099C252.658 795.099 248.229 791.661 244.996 792.272Z" fill="#623a3a" fill-rule="nonzero" opacity="1" stroke="none"/>
<path d="M226.11 808.995C226.11 808.163 225.37 807.489 224.457 807.489C223.543 807.489 222.803 808.163 222.803 808.995C222.803 809.826 223.543 810.5 224.457 810.5C225.37 810.5 226.11 809.826 226.11 808.995Z" fill="#d22534" fill-rule="nonzero" opacity="1" stroke="none"/>
</g>
</g>
</svg>
