<?xml version="1.0" encoding="UTF-8" standalone="no"?>
<!DOCTYPE svg PUBLIC "-//W3C//DTD SVG 1.1//EN" "http://www.w3.org/Graphics/SVG/1.1/DTD/svg11.dtd">
<!-- Created with Vectornator (http://vectornator.io/) -->
<svg height="880.0px" stroke-miterlimit="10" style="fill-rule:nonzero;clip-rule:evenodd;stroke-linecap:round;stroke-linejoin:round;" version="1.1" viewBox="0 0 400 880" width="400.0px" xml:space="preserve" xmlns="http://www.w3.org/2000/svg" xmlns:xlink="http://www.w3.org/1999/xlink">
<defs/>
<g id="slipper">
<g opacity="1">
<g opacity="1">
<path d="M223.719 796.5C222.705 797.047 221.776 797.786 220.938 798.781C220.359 799.468 220.085 800.135 219.75 800.813C219.664 800.907 219.553 800.932 219.469 801.031C219.393 801.121 219.323 801.454 219.25 801.625C219.206 801.748 219.162 801.877 219.125 802C218.724 803.173 218.406 804.906 218.406 804.906C215.915 813.329 225.135 819.988 234.781 833.469C245.269 848.126 258.999 856.742 270.063 847.875C272.603 845.839 274.329 843.325 275 839.938C275.421 837.813 275.215 836.081 274.688 834.25C273.602 828.499 267.37 822.097 260.125 815.469C260.856 816.453 261.631 817.355 262.313 818.313C266.482 824.171 268.594 828.188 268.594 828.188C268.594 828.188 273.943 831.486 272.438 834.125C271.804 835.236 268.22 832.477 267.063 831.75C266.908 831.653 266.844 831.906 266.844 831.906C266.844 831.906 269.65 833.468 270.469 834.719C271.287 835.969 270.324 837.251 269.5 836.906C267.869 836.225 265.208 833.276 265.063 833.156C264.917 833.037 264.906 833.25 264.906 833.25C264.906 833.25 269.331 836.637 268.094 838.031C267.747 838.422 266.704 838.727 265.781 837.5C264.658 836.008 262.375 834.113 262.219 834.094C261.993 834.066 262.062 834.25 262.063 834.25C262.063 834.25 265.587 836.876 266 838.125C266.413 839.374 264.062 840.277 262.375 838.531C261.271 837.389 260.431 836.079 259.313 835.406C258.628 834.995 258.938 835.688 258.938 835.688C258.938 835.688 264.013 838.795 261.313 841.031C258.612 843.267 253.865 839.98 252.469 838.969C248.979 836.44 246.311 833.594 244.469 828.844C242.306 823.266 235.813 819 235.813 819C228.144 815.602 223.318 810.651 222.969 805.875C222.688 802.037 223.232 799.655 223.719 796.5Z" fill="#000002" fill-rule="nonzero" opacity="1" stroke="none"/>
<path d="M157.844 796.656C158.325 799.726 158.87 802.101 158.594 805.875C158.244 810.651 153.387 815.602 145.719 819C145.719 819 139.256 823.266 137.094 828.844C135.252 833.594 132.584 836.44 129.094 838.969C127.698 839.98 122.95 843.267 120.25 841.031C117.55 838.795 122.594 835.688 122.594 835.688C122.594 835.688 122.903 834.995 122.219 835.406C121.1 836.079 120.291 837.389 119.188 838.531C117.5 840.277 115.118 839.374 115.531 838.125C115.944 836.876 119.5 834.25 119.5 834.25C119.5 834.25 119.538 834.066 119.313 834.094C119.157 834.113 116.873 836.008 115.75 837.5C114.827 838.727 113.784 838.422 113.438 838.031C112.201 836.637 116.656 833.25 116.656 833.25C116.656 833.25 116.645 833.037 116.5 833.156C116.355 833.276 113.663 836.225 112.031 836.906C111.207 837.251 110.244 835.969 111.063 834.719C111.881 833.468 114.688 831.906 114.688 831.906C114.688 831.906 114.623 831.653 114.469 831.75C113.311 832.477 109.727 835.236 109.094 834.125C107.589 831.486 112.938 828.188 112.938 828.188C112.937 828.188 115.081 824.171 119.25 818.313C120.067 817.165 120.99 816.089 121.875 814.906C114.34 821.754 107.753 828.355 106.656 834.281C106.14 836.098 105.957 837.827 106.375 839.938C107.046 843.325 108.803 845.839 111.344 847.875C122.407 856.742 136.106 848.126 146.594 833.469C156.24 819.988 165.491 813.329 163 804.906C163 804.906 162.651 803.173 162.25 802C162.213 801.877 162.169 801.748 162.125 801.625C162.052 801.454 161.982 801.121 161.906 801.031C161.822 800.932 161.711 800.907 161.625 800.813C161.29 800.135 161.016 799.468 160.438 798.781C159.655 797.854 158.778 797.194 157.844 796.656Z" fill="#000002" fill-rule="nonzero" opacity="1" stroke="none"/>
</g>
<g opacity="1">
<g opacity="1">
<path d="M121.897 815.598C121.897 815.598 120.492 808.24 133.778 812.905C147.065 817.57 149.06 827.848 149.06 827.848L147.5 829.75C147.5 829.75 144.537 819.147 131.79 814.966C119.043 810.785 120.002 817.68 120.002 817.68L121.897 815.598Z" fill="#000002" fill-rule="nonzero" opacity="1" stroke="none"/>
<path d="M119.961 817.38C119.961 817.38 118.556 810.022 131.842 814.687C145.129 819.352 147.124 829.631 147.124 829.631L145.564 831.533C145.564 831.533 142.601 820.929 129.854 816.749C117.107 812.568 118.066 819.462 118.066 819.462L119.961 817.38Z" fill="#ffffff" fill-rule="nonzero" opacity="1" stroke="none"/>
<path d="M118.403 819.281C118.403 819.281 116.999 811.923 130.285 816.588C143.572 821.253 145.567 831.532 145.567 831.532L144.007 833.433C144.007 833.433 141.044 822.83 128.297 818.649C115.55 814.469 116.509 821.363 116.509 821.363L118.403 819.281Z" fill="#000002" fill-rule="nonzero" opacity="1" stroke="none"/>
</g>
<g opacity="1">
<path d="M116.57 820.77C116.57 820.77 115.165 813.412 128.452 818.077C141.738 822.742 143.734 833.021 143.734 833.021L142.173 834.923C142.173 834.923 139.211 824.319 126.464 820.139C113.717 815.958 114.675 822.852 114.675 822.852L116.57 820.77Z" fill="#ffffff" fill-rule="nonzero" opacity="1" stroke="none"/>
<path d="M115.013 822.671C115.013 822.671 113.608 815.313 126.895 819.978C140.181 824.643 142.177 834.922 142.177 834.922L140.616 836.823C140.616 836.823 137.653 826.22 124.906 822.039C112.159 817.859 113.118 824.753 113.118 824.753L115.013 822.671Z" fill="#000002" fill-rule="nonzero" opacity="1" stroke="none"/>
</g>
<g opacity="1">
<path d="M113.432 824.103C113.432 824.103 112.028 816.745 125.314 821.41C138.6 826.075 140.596 836.354 140.596 836.354L139.036 838.255C139.036 838.255 136.073 827.652 123.326 823.471C110.579 819.291 111.537 826.185 111.537 826.185L113.432 824.103Z" fill="#ffffff" fill-rule="nonzero" opacity="1" stroke="none"/>
<path d="M111.875 826.004C111.875 826.004 110.47 818.646 123.757 823.311C137.043 827.976 139.039 838.254 139.039 838.254L137.478 840.156C137.478 840.156 134.516 829.553 121.769 825.372C109.022 821.191 109.98 828.086 109.98 828.086L111.875 826.004Z" fill="#000002" fill-rule="nonzero" opacity="1" stroke="none"/>
</g>
<path d="M112.695 823.051C111.676 823.874 110.934 825.223 110.7 825.579C110.465 825.934 111.923 824.584 111.923 824.584C111.923 824.584 113.713 822.228 112.695 823.051Z" fill="#000002" fill-rule="nonzero" opacity="1" stroke="none"/>
</g>
<g opacity="1">
<g opacity="1">
<path d="M259.968 815.598C259.968 815.598 261.373 808.24 248.086 812.905C234.8 817.57 232.804 827.848 232.804 827.848L234.365 829.75C234.365 829.75 237.328 819.147 250.074 814.966C262.821 810.785 261.863 817.68 261.863 817.68L259.968 815.598Z" fill="#000002" fill-rule="nonzero" opacity="1" stroke="none"/>
<path d="M261.904 817.38C261.904 817.38 263.309 810.022 250.022 814.687C236.736 819.352 234.74 829.631 234.74 829.631L236.301 831.533C236.301 831.533 239.264 820.929 252.011 816.749C264.757 812.568 263.799 819.462 263.799 819.462L261.904 817.38Z" fill="#ffffff" fill-rule="nonzero" opacity="1" stroke="none"/>
<path d="M263.461 819.281C263.461 819.281 264.866 811.923 251.579 816.588C238.293 821.253 236.298 831.532 236.298 831.532L237.858 833.433C237.858 833.433 240.821 822.83 253.568 818.649C266.315 814.469 265.356 821.363 265.356 821.363L263.461 819.281Z" fill="#000002" fill-rule="nonzero" opacity="1" stroke="none"/>
</g>
<g opacity="1">
<path d="M265.295 820.77C265.295 820.77 266.699 813.412 253.413 818.077C240.127 822.742 238.131 833.021 238.131 833.021L239.691 834.923C239.691 834.923 242.654 824.319 255.401 820.139C268.148 815.958 267.19 822.852 267.19 822.852L265.295 820.77Z" fill="#ffffff" fill-rule="nonzero" opacity="1" stroke="none"/>
<path d="M266.852 822.671C266.852 822.671 268.256 815.313 254.97 819.978C241.684 824.643 239.688 834.922 239.688 834.922L241.249 836.823C241.249 836.823 244.211 826.22 256.958 822.039C269.705 817.859 268.747 824.753 268.747 824.753L266.852 822.671Z" fill="#000002" fill-rule="nonzero" opacity="1" stroke="none"/>
</g>
<g opacity="1">
<path d="M268.433 824.103C268.433 824.103 269.837 816.745 256.551 821.41C243.265 826.075 241.269 836.354 241.269 836.354L242.829 838.255C242.829 838.255 245.792 827.652 258.539 823.471C271.286 819.291 270.328 826.185 270.328 826.185L268.433 824.103Z" fill="#ffffff" fill-rule="nonzero" opacity="1" stroke="none"/>
<path d="M269.99 826.004C269.99 826.004 271.394 818.646 258.108 823.311C244.822 827.976 242.826 838.254 242.826 838.254L244.386 840.156C244.386 840.156 247.349 829.553 260.096 825.372C272.843 821.191 271.885 828.086 271.885 828.086L269.99 826.004Z" fill="#000002" fill-rule="nonzero" opacity="1" stroke="none"/>
</g>
<path d="M269.17 823.051C270.188 823.874 270.931 825.223 271.165 825.579C271.399 825.934 269.942 824.584 269.942 824.584C269.942 824.584 268.152 822.228 269.17 823.051Z" fill="#000002" fill-rule="nonzero" opacity="1" stroke="none"/>
</g>
</g>
</g>
</svg>
